<svg width="1196" height="277" viewBox="0 0 1196 277" fill="none" xmlns="http://www.w3.org/2000/svg">
<path d="M379.962 10.7089C379.239 11.9299 377.385 14.598 375.892 16.7235C374.355 18.8489 371.415 23.0998 369.245 26.2201C367.119 29.3405 364.225 33.5009 362.823 35.4907C361.421 37.4805 359.386 40.3747 358.346 41.9575C357.261 43.495 355.452 46.0727 354.321 47.7007C349.392 54.7553 347.855 57.0617 344.508 61.9457C342.518 64.7947 339.805 68.7742 338.403 70.764C337.001 72.7538 335.012 75.6028 333.971 77.0951C332.931 78.5875 331.168 81.1199 330.082 82.7479C327.957 85.7778 324.837 90.3 319.817 97.6712C318.189 100.023 316.018 103.188 314.978 104.681C313.938 106.173 312.174 108.705 311.044 110.333C309.958 111.961 307.426 115.624 305.481 118.473C303.492 121.322 300.824 125.212 299.557 127.066C298.246 128.92 295.623 132.673 293.769 135.432C291.87 138.145 289.382 141.808 288.161 143.572C285.041 148.094 280.519 154.696 277.444 159.173C275.997 161.299 273.916 164.329 272.786 165.957C271.655 167.585 269.258 171.022 267.495 173.645C263.877 178.936 260.44 183.91 256.008 190.377C254.38 192.728 252.164 195.984 251.079 197.612C249.949 199.24 248.682 201.049 248.23 201.637C247.009 203.175 247.145 203.717 249.315 207.199C250.356 208.918 251.441 210.682 251.667 211.089C252.391 212.31 254.516 215.611 257.275 219.771C258.631 221.897 259.988 223.977 260.259 224.384C261.073 225.786 264.555 231.212 266.816 234.695C268.806 237.77 271.881 242.563 273.283 244.824C273.6 245.322 274.685 247.04 275.77 248.623C276.811 250.206 277.67 251.562 277.67 251.653C277.67 251.743 278.529 253.1 279.614 254.683C280.654 256.266 281.74 257.984 282.056 258.481C282.373 258.934 283.458 260.743 284.544 262.416C285.629 264.089 286.714 265.853 286.94 266.26C287.619 267.39 293.452 276.344 294.357 277.656C294.809 278.289 295.261 279.103 295.442 279.465C295.623 279.826 296.754 281.68 297.975 283.535C299.241 285.389 301.095 288.328 302.18 290.001C303.266 291.72 304.441 293.574 304.803 294.162C305.165 294.75 306.386 296.694 307.516 298.458C308.647 300.222 309.868 302.166 310.23 302.709C311.27 304.337 314.888 310.125 315.792 311.618C316.199 312.386 316.47 313.2 316.335 313.426C316.018 313.924 281.333 313.969 261.48 313.517L248.23 313.246L244.296 306.734C242.125 303.161 240 299.679 239.593 299.001C239.14 298.322 238.598 297.373 238.326 296.875C238.055 296.378 237.467 295.338 236.97 294.614C236.472 293.845 235.884 292.85 235.613 292.353C235.342 291.855 234.799 290.906 234.347 290.227C233.94 289.594 231.769 286.067 229.508 282.404C227.292 278.786 225.122 275.304 224.76 274.716C224.398 274.128 222.544 271.189 220.69 268.159C218.836 265.129 216.982 262.19 216.62 261.602C216.258 261.014 215.037 259.069 213.906 257.306C212.776 255.542 211.51 253.552 211.103 252.874C210.65 252.196 210.153 251.336 209.972 250.975C209.791 250.613 208.796 249.03 207.711 247.447C206.626 245.864 205.766 244.508 205.766 244.417C205.766 243.965 203.37 240.754 202.827 240.483C202.42 240.212 201.877 240.8 201.109 242.292C200.475 243.513 199.526 245.277 198.983 246.271C198.395 247.221 196.948 249.98 195.682 252.331C194.461 254.683 192.652 258.029 191.748 259.793C181.573 278.967 178.859 284.258 169.091 303.749C164.343 313.246 160.589 321.25 160.77 321.521C161.539 322.742 162.489 321.702 169.95 311.03C171.126 309.356 173.161 306.417 174.518 304.518C178.09 299.408 184.829 289.459 193.918 275.756C198.305 269.109 202.149 263.682 202.42 263.682C202.737 263.637 203.053 263.999 203.189 264.406C203.37 264.858 204.455 267.028 205.721 269.29C206.942 271.505 208.661 274.671 209.475 276.299C212.912 282.766 215.218 287.107 216.846 290.092C217.796 291.855 219.378 294.795 220.373 296.649C222.363 300.312 224.127 303.658 226.162 307.367C226.885 308.678 228.061 310.849 228.785 312.115C230.186 314.738 232.493 318.898 234.076 321.747C234.663 322.742 235.658 324.596 236.337 325.863C237.015 327.129 237.919 328.621 238.326 329.209L239.095 330.249L291.915 329.752C323.932 329.48 344.87 329.119 345.141 328.847C345.413 328.576 344.508 326.948 342.745 324.415C339.489 319.758 336.911 316.049 332.117 309.085C330.263 306.327 327.64 302.573 326.329 300.719C325.017 298.865 322.575 295.292 320.857 292.805C317.646 288.102 314.209 283.173 310.727 278.108C309.642 276.48 307.2 272.998 305.391 270.33C303.582 267.616 300.507 263.139 298.608 260.381C293.678 253.145 289.382 246.859 283.91 238.765C278.484 230.715 273.419 223.299 270.027 218.415C260.847 205.119 259.897 203.491 260.576 202.677C260.938 202.27 261.39 201.592 261.571 201.23C261.706 200.868 262.882 199.014 264.103 197.16C265.324 195.306 267.178 192.367 268.264 190.648C269.349 188.93 270.525 187.076 270.886 186.533C271.248 185.99 272.424 184.136 273.509 182.418C274.595 180.699 276.449 177.76 277.67 175.906C278.891 174.052 280.745 171.112 281.83 169.439C282.916 167.72 284.091 165.866 284.453 165.278C284.815 164.691 285.991 162.836 287.076 161.118C288.161 159.445 290.332 156.008 291.915 153.521C293.498 151.033 295.668 147.597 296.754 145.923C297.839 144.205 299.015 142.351 299.376 141.808C300.1 140.678 303.853 134.753 304.577 133.487C304.848 133.08 305.843 131.497 306.838 130.005C307.833 128.513 308.828 126.93 309.099 126.523C309.597 125.664 311.858 122.091 316.335 115.082C317.918 112.595 320.36 108.705 321.761 106.49C323.163 104.228 325.289 100.882 326.555 99.0279C327.776 97.1738 328.952 95.2292 329.223 94.7318C329.494 94.2343 330.67 92.2898 331.891 90.4357C333.881 87.451 338.539 80.125 339.85 77.8639C340.122 77.4569 341.117 75.8741 342.111 74.3818C343.106 72.8895 344.101 71.3067 344.373 70.8997C345.051 69.7691 349.618 62.4431 352.965 57.1974C354.548 54.7101 357.035 50.7758 358.482 48.4695C359.929 46.1179 361.421 43.7664 361.783 43.1785C362.145 42.5906 363.366 40.646 364.496 38.8824C365.627 37.1187 366.848 35.1741 367.21 34.5862C367.572 33.9984 369.064 31.6016 370.511 29.2952C371.958 26.9889 374.129 23.552 375.395 21.6979C376.616 19.8438 377.792 17.8992 378.063 17.4018C378.289 16.9044 379.51 14.9146 380.776 12.97C383.264 9.03568 383.445 8.58347 382.178 8.58347C381.681 8.58347 380.822 9.44269 379.962 10.7089Z" fill="#A0A0A0" fill-opacity="0.1"/>
<path d="M164.575 77.5433C164.439 77.6338 141.24 77.7694 113.021 77.7694C84.7573 77.8147 61.3774 77.9955 61.0609 78.2216C60.4278 78.6287 63.2768 83.1509 71.462 94.7278C73.0448 96.9437 75.8033 100.923 77.567 103.546C79.3306 106.169 82.0892 110.103 83.672 112.364C85.2547 114.58 88.2846 118.967 90.3649 122.087C93.8922 127.243 96.6055 131.267 102.168 139.272C103.253 140.9 106.102 145.06 108.499 148.542C115.237 158.491 120.166 165.772 123.829 171.153C125.729 173.867 129.301 179.158 131.834 182.911C134.366 186.619 137.351 191.006 138.481 192.634C139.567 194.262 141.692 197.292 143.139 199.417C144.586 201.543 145.762 203.578 145.762 204.03C145.717 204.437 144.903 205.929 143.908 207.422C142.37 209.728 140.652 212.306 139.069 214.838C138.843 215.245 137.713 217.054 136.582 218.818C135.451 220.626 134.321 222.435 134.095 222.842C133.823 223.249 132.829 224.832 131.788 226.324C130.794 227.862 129.844 229.354 129.663 229.716C129.482 230.078 128.352 231.932 127.131 233.786C125.864 235.64 124.01 238.58 122.925 240.253C121.84 241.971 120.664 243.825 120.302 244.413C119.94 245.001 118.719 246.946 117.589 248.709C116.458 250.473 115.237 252.418 114.875 253.006C114.514 253.593 113.338 255.448 112.252 257.166C111.167 258.839 108.996 262.276 107.414 264.763C105.831 267.251 103.66 270.687 102.575 272.361C101.49 274.079 100.269 275.978 99.8615 276.657C99.4093 277.335 98.9119 278.194 98.731 278.556C98.5049 278.918 97.0125 281.269 95.3845 283.757C93.7565 286.244 91.812 289.274 91.0884 290.45C90.3649 291.671 89.4604 293.118 89.0986 293.706C88.7369 294.293 87.5611 296.148 86.4757 297.866C85.3904 299.539 83.2197 302.976 81.637 305.463C80.0542 307.951 77.8835 311.387 76.7982 313.061C75.7129 314.779 74.4919 316.678 74.0849 317.357C73.6326 318.035 73.1352 318.894 72.9543 319.256C72.7734 319.618 71.8238 321.155 70.8289 322.648C69.7888 324.185 68.7486 325.813 68.4321 326.311C67.0754 328.527 62.5532 335.762 59.9303 339.832C58.3475 342.319 55.8603 346.254 54.4132 348.56C51.5642 353.128 51.4285 353.354 48.3986 358.147C47.2681 359.911 46.0923 361.81 45.7758 362.353C45.4592 362.896 43.8764 365.383 42.2936 367.87C40.7109 370.357 38.2236 374.292 36.7765 376.598C35.3294 378.904 33.8371 381.301 33.4753 381.889C24.7474 395.727 23.0742 398.44 23.0742 398.892C23.0742 399.119 23.436 399.299 23.9334 399.299C24.4309 399.299 25.2901 398.44 26.1493 397.129C26.8729 395.953 28.5009 393.556 29.7219 391.838C32.2995 388.22 35.5103 383.607 38.3141 379.492C40.5752 376.236 43.2885 372.302 46.3636 367.87C47.5846 366.106 49.484 363.393 50.6145 361.765C51.6999 360.137 53.4635 357.605 54.5036 356.112C58.3928 350.505 60.5182 347.43 62.6436 344.354C63.8194 342.591 65.7188 339.923 66.8041 338.34C74.3562 327.441 76.346 324.547 80.2803 318.804C82.044 316.181 84.4408 312.699 85.6165 310.98C89.2343 305.825 91.812 302.026 95.2036 297.097C96.9673 294.474 99.3641 291.037 100.495 289.409C101.58 287.781 103.615 284.842 104.972 282.852C109.358 276.521 113.654 270.28 115.554 267.477C116.594 265.984 118.629 263.045 120.076 260.919C123.106 256.488 127.628 249.93 130.929 245.182C132.15 243.373 133.507 241.383 133.869 240.796C134.23 240.208 135.632 238.127 136.989 236.183C138.346 234.238 140.923 230.53 142.687 227.907C144.496 225.284 146.938 221.712 148.114 219.993C149.335 218.23 151.822 214.612 153.631 211.944C155.485 209.23 157.384 206.427 157.927 205.703C158.741 204.618 158.831 204.166 158.47 203.125C158.063 202.04 153.269 194.398 151.008 191.187C150.556 190.508 150.149 189.83 150.149 189.694C150.149 189.559 149.742 188.88 149.289 188.202C147.933 186.303 142.235 177.53 142.054 177.032C141.963 176.806 141.014 175.359 139.974 173.867C138.934 172.374 137.939 170.837 137.758 170.475C137.215 169.299 131.155 159.893 129.301 157.27C128.849 156.592 128.442 155.959 128.442 155.823C128.442 155.733 126.95 153.381 125.186 150.622C123.377 147.864 121.071 144.337 120.121 142.799C119.126 141.216 117.227 138.232 115.825 136.106C114.468 133.981 112.479 130.815 111.348 129.097C110.217 127.333 108.77 125.117 108.137 124.122C107.459 123.127 106.781 121.997 106.6 121.635C106.419 121.273 105.288 119.419 104.067 117.565C102.801 115.711 100.947 112.771 99.8615 111.098C98.7762 109.38 97.5552 107.48 97.1482 106.802C96.696 106.124 96.1985 105.265 96.0176 104.903C95.8368 104.541 94.8419 102.958 93.7565 101.421C92.6712 99.8379 91.812 98.4812 91.812 98.3456C91.812 98.2551 91.3145 97.3959 90.6814 96.4914C90.0483 95.587 89.5509 94.6373 89.5509 94.4564C89.5509 94.2303 104.926 94.0494 123.694 94.0494H157.791L162.449 101.782C165.027 105.988 167.469 110.013 167.876 110.691C168.328 111.37 168.916 112.319 169.142 112.817C169.73 113.857 170.634 115.44 171.765 117.203C172.172 117.882 174.659 121.906 177.282 126.157C179.905 130.408 182.347 134.388 182.709 134.976C183.07 135.563 184.879 138.458 186.688 141.397C188.497 144.337 191.301 148.768 192.929 151.256C194.512 153.743 195.959 156.094 196.14 156.456C196.321 156.818 197.315 158.401 198.401 159.983C199.486 161.566 200.345 162.923 200.345 163.013C200.345 163.511 203.194 167.309 203.556 167.309C203.782 167.309 204.189 166.857 204.415 166.269C204.868 165.32 205.682 163.782 209.48 156.908C211.696 152.838 215.269 146.055 224.132 129.097C225.715 126.112 231.187 115.304 236.297 105.084C244.934 87.8992 246.11 85.005 244.708 85.005C244.527 85.005 243.171 86.6782 241.724 88.7132C240.277 90.7934 238.332 93.4615 237.428 94.7278C236.523 95.9488 234.805 98.3456 233.674 100.064C232.498 101.737 230.599 104.496 229.423 106.169C224.539 113.224 219.746 120.324 212.194 131.674C207.807 138.322 203.963 143.749 203.737 143.749C203.466 143.794 202.426 142.211 201.431 140.267C200.436 138.367 198.582 134.84 197.315 132.488C196.049 130.137 194.059 126.338 192.884 124.122C191.708 121.861 190.125 118.922 189.402 117.565C187.502 114.173 186.01 111.415 182.89 105.581C181.442 102.823 180.041 100.29 179.769 99.8379C179.543 99.4309 178.82 98.1194 178.186 96.8984C177.553 95.7227 176.468 93.7329 175.79 92.4666C174.433 90.2055 172.715 86.9948 169.911 81.9299C167.921 78.2216 167.107 77.3172 165.841 77.3172C165.253 77.3172 164.665 77.4077 164.575 77.5433Z" fill="#A0A0A0" fill-opacity="0.1"/>
<path d="M386.25 99.168V154.698H435.462V161.349H386.25V290.032C386.25 300.451 388.134 307.767 391.902 311.978C395.671 316.19 400.88 318.296 407.531 318.296C414.181 318.296 419.945 315.636 424.822 310.316C429.698 304.774 433.91 295.574 437.457 282.717L444.108 284.38C441.891 297.237 437.457 308.099 430.807 316.966C424.378 325.833 414.403 330.267 400.88 330.267C393.343 330.267 387.136 329.269 382.259 327.274C377.383 325.501 373.06 322.841 369.291 319.294C364.414 314.195 360.978 308.099 358.983 301.005C357.21 293.912 356.323 284.49 356.323 272.742V161.349H324.402V154.698H356.323V103.823C361.865 103.602 367.185 103.158 372.284 102.493C377.383 101.828 382.038 100.72 386.25 99.168ZM534.051 149.71C540.036 149.71 545.245 150.93 549.679 153.368C554.334 155.807 557.881 159.021 560.319 163.011C562.98 166.78 564.31 171.102 564.31 175.979C564.31 181.521 562.536 186.398 558.989 190.61C555.664 194.822 551.12 196.928 545.356 196.928C540.701 196.928 536.6 195.487 533.053 192.605C529.506 189.502 527.733 185.179 527.733 179.637C527.733 175.425 528.841 171.878 531.058 168.996C533.496 165.893 536.157 163.454 539.038 161.681C537.487 159.464 535.159 158.356 532.055 158.356C525.183 158.356 518.866 160.462 513.102 164.674C507.338 168.664 502.462 173.873 498.471 180.302C494.481 186.731 491.378 193.603 489.161 200.918C486.944 208.012 485.836 214.662 485.836 220.869V291.362C485.836 302.225 488.939 309.54 495.146 313.308C501.575 316.855 510.22 318.629 521.082 318.629V325.612C515.984 325.39 508.779 325.168 499.469 324.947C490.158 324.503 480.294 324.282 469.875 324.282C462.338 324.282 454.801 324.503 447.264 324.947C439.948 325.168 434.407 325.39 430.638 325.612V318.629C439.727 318.629 446.155 316.966 449.924 313.641C453.914 310.316 455.909 303.998 455.909 294.688V190.61C455.909 180.634 454.136 173.319 450.589 168.664C447.042 163.787 440.392 161.349 430.638 161.349V154.366C437.732 155.031 444.604 155.363 451.254 155.363C457.683 155.363 463.779 155.031 469.542 154.366C475.528 153.479 480.959 152.26 485.836 150.708V192.273C488.274 185.844 491.71 179.415 496.144 172.987C500.799 166.336 506.341 160.794 512.77 156.361C519.198 151.927 526.292 149.71 534.051 149.71ZM605.978 327.939C596.889 327.939 589.02 326.277 582.369 322.951C575.719 319.405 570.62 314.528 567.074 308.321C563.748 302.114 562.086 294.909 562.086 286.707C562.086 276.953 564.303 268.973 568.736 262.766C573.391 256.559 579.266 251.571 586.36 247.803C593.453 244.034 600.879 240.931 608.638 238.492C616.619 235.832 624.156 233.394 631.249 231.177C638.343 228.739 644.107 225.968 648.54 222.864C653.195 219.761 655.523 215.66 655.523 210.561V189.945C655.523 180.634 654.082 173.541 651.2 168.664C648.54 163.787 644.882 160.573 640.227 159.021C635.572 157.247 630.363 156.361 624.599 156.361C619.057 156.361 613.072 157.137 606.643 158.688C600.436 160.24 595.448 163.454 591.68 168.331C595.892 169.218 599.549 171.435 602.653 174.982C605.756 178.529 607.308 183.073 607.308 188.615C607.308 194.157 605.535 198.59 601.988 201.916C598.441 205.019 593.897 206.571 588.355 206.571C581.926 206.571 577.16 204.576 574.056 200.585C571.175 196.374 569.734 191.718 569.734 186.62C569.734 180.856 571.175 176.201 574.056 172.654C576.938 169.107 580.596 165.782 585.029 162.679C590.128 159.132 596.668 156.139 604.648 153.701C612.85 151.041 622.05 149.71 632.247 149.71C641.336 149.71 649.094 150.819 655.523 153.036C661.952 155.031 667.272 158.023 671.484 162.014C677.247 167.334 681.016 173.873 682.789 181.632C684.563 189.169 685.449 198.258 685.449 208.898V301.338C685.449 306.88 686.225 310.87 687.777 313.308C689.55 315.747 692.211 316.966 695.757 316.966C698.196 316.966 700.523 316.412 702.74 315.304C704.957 314.195 707.617 312.422 710.721 309.983L714.378 315.636C709.723 319.183 705.29 322.176 701.078 324.614C696.866 326.831 691.213 327.939 684.119 327.939C677.691 327.939 672.37 326.831 668.159 324.614C663.947 322.397 660.732 319.183 658.516 314.971C656.521 310.538 655.523 304.996 655.523 298.345C649.538 308.321 642.333 315.747 633.909 320.624C625.707 325.501 616.397 327.939 605.978 327.939ZM617.949 314.639C625.264 314.639 632.025 312.533 638.232 308.321C644.661 304.109 650.424 297.791 655.523 289.367V224.194C652.863 227.963 648.983 231.177 643.885 233.837C638.786 236.276 633.244 238.825 627.259 241.485C621.274 243.923 615.51 246.916 609.968 250.463C604.648 253.788 600.214 258.222 596.668 263.764C593.121 269.306 591.347 276.51 591.347 285.377C591.347 294.244 593.675 301.338 598.33 306.658C603.207 311.978 609.747 314.639 617.949 314.639ZM765.601 388.125C753.853 388.125 742.769 386.905 732.35 384.467C721.931 382.029 713.507 378.149 707.079 372.829C700.872 367.73 697.768 361.191 697.768 353.21C697.768 345.452 700.872 338.801 707.079 333.259C713.286 327.718 721.709 323.506 732.35 320.624L734.345 325.944C729.468 327.496 725.589 330.599 722.707 335.255C719.825 339.91 718.384 345.119 718.384 350.883C718.384 361.08 723.039 368.839 732.35 374.159C741.882 379.701 754.185 382.472 769.259 382.472C779.235 382.472 788.988 381.142 798.521 378.482C808.053 376.043 815.922 371.831 822.129 365.846C828.336 359.861 831.44 351.991 831.44 342.237C831.44 334.922 828.78 328.937 823.459 324.282C818.361 319.405 808.164 316.966 792.868 316.966H768.262C761.168 316.966 754.296 316.412 747.646 315.304C740.995 314.195 735.564 311.868 731.352 308.321C727.14 304.774 725.034 299.343 725.034 292.027C725.034 284.49 728.138 277.286 734.345 270.414C740.552 263.32 751.968 256.116 768.594 248.8L772.584 251.793C765.047 255.783 758.508 259.884 752.966 264.096C747.424 268.086 744.653 272.852 744.653 278.394C744.653 285.488 749.973 289.035 760.614 289.035H802.178C811.489 289.035 820.023 290.365 827.782 293.025C835.762 295.685 842.191 299.897 847.068 305.661C851.945 311.424 854.383 318.961 854.383 328.272C854.383 338.691 851.058 348.444 844.408 357.533C837.757 366.622 827.782 373.937 814.481 379.479C801.402 385.243 785.109 388.125 765.601 388.125ZM767.264 254.786C756.402 254.786 746.537 253.012 737.67 249.465C728.803 245.697 721.82 239.933 716.722 232.175C711.623 224.416 709.074 214.44 709.074 202.248C709.074 190.056 711.623 180.08 716.722 172.322C721.82 164.563 728.803 158.91 737.67 155.363C746.537 151.595 756.402 149.71 767.264 149.71C778.348 149.71 788.213 151.595 796.858 155.363C805.725 158.91 812.708 164.563 817.806 172.322C822.905 180.08 825.454 190.056 825.454 202.248C825.454 214.44 822.905 224.416 817.806 232.175C812.708 239.933 805.725 245.697 796.858 249.465C788.213 253.012 778.348 254.786 767.264 254.786ZM767.264 248.8C775.688 248.8 782.227 245.475 786.882 238.825C791.759 232.175 794.198 219.982 794.198 202.248C794.198 184.514 791.759 172.322 786.882 165.671C782.227 159.021 775.688 155.696 767.264 155.696C759.062 155.696 752.522 159.021 747.646 165.671C742.769 172.322 740.33 184.514 740.33 202.248C740.33 219.982 742.769 232.175 747.646 238.825C752.522 245.475 759.062 248.8 767.264 248.8ZM815.146 177.309L809.161 174.982C812.265 167.445 817.585 160.794 825.122 155.031C832.659 149.267 840.528 146.385 848.731 146.385C854.494 146.385 859.149 148.048 862.696 151.373C866.243 154.477 868.016 159.243 868.016 165.671C868.016 172.543 866.132 177.42 862.364 180.302C858.817 182.962 855.159 184.292 851.391 184.292C848.065 184.292 844.962 183.184 842.08 180.967C839.198 178.529 837.536 174.76 837.092 169.661C836.649 164.563 838.201 158.023 841.748 150.043L846.07 151.041C836.76 154.587 830.11 158.356 826.119 162.346C822.129 166.115 818.472 171.102 815.146 177.309ZM883.419 325.612V78.8845H907.027V325.612H883.419ZM1026.92 327.274C1008.74 327.274 992.779 323.506 979.035 315.969C965.291 308.21 954.54 297.68 946.781 284.38C939.023 270.857 935.143 255.451 935.143 238.16C935.143 220.869 938.801 205.573 946.116 192.273C953.653 178.972 963.85 168.553 976.708 161.016C989.787 153.257 1004.42 149.378 1020.6 149.378C1037 149.378 1051.52 153.146 1064.16 160.683C1077.02 167.999 1087.1 178.418 1094.42 191.94C1101.73 205.241 1105.39 220.647 1105.39 238.16C1105.39 239.268 1105.28 240.487 1105.06 241.817C1105.06 242.926 1105.06 244.145 1105.06 245.475H953.099V227.852H1092.42L1083.11 234.835C1083.11 222.199 1080.34 211.004 1074.8 201.25C1069.48 191.275 1062.16 183.516 1052.85 177.974C1043.54 172.432 1032.79 169.661 1020.6 169.661C1008.63 169.661 997.878 172.432 988.346 177.974C978.814 183.516 971.387 191.275 966.067 201.25C960.747 211.226 958.087 222.642 958.087 235.5V239.157C958.087 252.458 960.969 264.207 966.732 274.404C972.718 284.38 980.92 292.249 991.338 298.013C1001.98 303.555 1014.06 306.326 1027.58 306.326C1038.22 306.326 1048.09 304.441 1057.18 300.673C1066.49 296.904 1074.47 291.141 1081.12 283.382L1094.42 298.678C1086.66 307.988 1076.91 315.082 1065.16 319.959C1053.63 324.836 1040.88 327.274 1026.92 327.274ZM1238.02 325.612V287.04L1237.02 280.722V216.214C1237.02 201.361 1232.81 189.945 1224.39 181.965C1216.19 173.984 1203.88 169.994 1187.48 169.994C1176.17 169.994 1165.42 171.878 1155.22 175.647C1145.03 179.415 1136.38 184.403 1129.29 190.61L1118.65 172.987C1127.52 165.45 1138.16 159.686 1150.57 155.696C1162.98 151.484 1176.06 149.378 1189.81 149.378C1212.42 149.378 1229.82 155.031 1242.01 166.336C1254.43 177.42 1260.63 194.378 1260.63 217.211V325.612H1238.02ZM1177.84 327.274C1164.76 327.274 1153.34 325.168 1143.59 320.956C1134.05 316.523 1126.74 310.538 1121.64 303C1116.54 295.242 1113.99 286.375 1113.99 276.399C1113.99 267.31 1116.1 259.108 1120.31 251.793C1124.74 244.256 1131.84 238.271 1141.59 233.837C1151.57 229.182 1164.87 226.854 1181.49 226.854H1241.68V244.478H1182.16C1165.31 244.478 1153.56 247.47 1146.91 253.456C1140.48 259.441 1137.27 266.867 1137.27 275.734C1137.27 285.71 1141.15 293.69 1148.91 299.675C1156.67 305.661 1167.53 308.653 1181.49 308.653C1194.79 308.653 1206.21 305.661 1215.74 299.675C1225.5 293.468 1232.59 284.601 1237.02 273.074L1242.34 289.367C1237.91 300.895 1230.15 310.094 1219.07 316.966C1208.21 323.838 1194.46 327.274 1177.84 327.274ZM1522.94 149.378C1537.12 149.378 1549.43 152.149 1559.85 157.691C1570.49 163.011 1578.69 171.213 1584.45 182.297C1590.44 193.381 1593.43 207.347 1593.43 224.194V325.612H1569.82V226.522C1569.82 208.122 1565.39 194.268 1556.52 184.957C1547.87 175.425 1535.57 170.659 1519.61 170.659C1507.64 170.659 1497.22 173.208 1488.35 178.307C1479.71 183.184 1472.95 190.388 1468.07 199.92C1463.42 209.231 1461.09 220.536 1461.09 233.837V325.612H1437.48V226.522C1437.48 208.122 1433.05 194.268 1424.18 184.957C1415.31 175.425 1402.9 170.659 1386.94 170.659C1375.19 170.659 1364.88 173.208 1356.01 178.307C1347.15 183.184 1340.27 190.388 1335.4 199.92C1330.74 209.231 1328.41 220.536 1328.41 233.837V325.612H1304.81V151.041H1327.42V198.258L1323.76 189.945C1329.08 177.309 1337.61 167.445 1349.36 160.351C1361.33 153.036 1375.41 149.378 1391.59 149.378C1408.66 149.378 1423.18 153.701 1435.15 162.346C1447.12 170.77 1454.88 183.516 1458.43 200.585L1449.12 196.928C1454.22 182.74 1463.19 171.324 1476.05 162.679C1489.13 153.811 1504.76 149.378 1522.94 149.378Z" fill="#A0A0A0" fill-opacity="0.1"/>
</svg>
